<?xml version="1.0" encoding="UTF-8" standalone="no" ?>
<!DOCTYPE svg PUBLIC "-//W3C//DTD SVG 1.1//EN" "http://www.w3.org/Graphics/SVG/1.1/DTD/svg11.dtd">
<svg xmlns="http://www.w3.org/2000/svg" xmlns:xlink="http://www.w3.org/1999/xlink" version="1.1" width="500" height="500" viewBox="0 0 500 500" xml:space="preserve">
<desc>Created with Fabric.js 5.3.0</desc>
<defs>
</defs>
<g transform="matrix(12.5 0 0 12.5 250 250)" id="NOpSCt6qB20bmsrZOQCtx"  >
<path style="stroke: none; stroke-width: 1; stroke-dasharray: none; stroke-linecap: butt; stroke-dashoffset: 0; stroke-linejoin: miter; stroke-miterlimit: 4; fill: rgb(37,132,255); fill-rule: evenodd; opacity: 1;"  transform=" translate(-376, -115)" d="M 368 109 C 366.896 109 366 108.104 366 107 C 366 105.896 366.896 105 368 105 C 369.104 105 370 105.896 370 107 C 370 108.104 369.104 109 368 109 L 368 109 Z M 368 103 C 365.791 103 364 104.791 364 107 C 364 109.209 365.791 111 368 111 C 370.209 111 372 109.209 372 107 C 372 104.791 370.209 103 368 103 L 368 103 Z M 390 116.128 L 384 110 L 374.059 120.111 L 370 116 L 362 123.337 L 362 103 C 362 101.896 362.896 101 364 101 L 388 101 C 389.104 101 390 101.896 390 103 L 390 116.128 L 390 116.128 Z M 390 127 C 390 128.104 389.104 129 388 129 L 382.832 129 L 375.464 121.535 L 384 112.999 L 390 118.999 L 390 127 L 390 127 Z M 364 129 C 362.896 129 362 128.104 362 127 L 362 126.061 L 369.945 118.945 L 380.001 129 L 364 129 L 364 129 Z M 388 99 L 364 99 C 361.791 99 360 100.791 360 103 L 360 127 C 360 129.209 361.791 131 364 131 L 388 131 C 390.209 131 392 129.209 392 127 L 392 103 C 392 100.791 390.209 99 388 99 L 388 99 Z" stroke-linecap="round" />
</g>
</svg>